<svg width="326" height="65" viewBox="0 0 326 65" fill="none" xmlns="http://www.w3.org/2000/svg">
<rect width="326" height="65" fill="#151B27"/>
<g clip-path="url(#clip0_866_63299)">
<path d="M18.6565 18.8747C18.5983 18.7142 18.4404 18.6099 18.2658 18.6099H10.9911C10.8166 18.6099 10.6669 18.7142 10.6004 18.8666L0.0251297 45.8365C-0.0247536 45.9568 -0.00812587 46.1013 0.075013 46.2056C0.149838 46.3179 0.28286 46.3821 0.415882 46.3821H5.04672C5.22131 46.3821 5.37927 46.2778 5.43747 46.1173L8.53023 38.0609H20.3858L23.3871 46.1173C23.4453 46.2778 23.6033 46.3821 23.7779 46.3821H28.6083C28.7413 46.3821 28.8743 46.3179 28.9491 46.2136C29.024 46.1093 29.0489 45.9649 28.999 45.8445L18.6565 18.8747ZM18.6732 33.487H10.2761L14.2252 23.1918H14.8322L18.6732 33.487Z" fill="#F8FAFC"/>
<path d="M61.1482 41.8083H37.5368V19.0191C37.5368 18.7945 37.3539 18.6179 37.1211 18.6179H33.2135C32.9808 18.6179 32.7979 18.7945 32.7979 19.0191V45.9809C32.7979 46.2056 32.9808 46.3822 33.2135 46.3822H61.1482C61.381 46.3822 61.5639 46.2056 61.5639 45.9809V42.2095C61.5639 41.9848 61.381 41.8083 61.1482 41.8083Z" fill="#F8FAFC"/>
<path d="M61.1491 29.7557H49.9918V19.0191C49.9918 18.7945 49.8089 18.6179 49.5762 18.6179H45.6686C45.4358 18.6179 45.2529 18.7945 45.2529 19.0191V33.9364C45.2529 34.1611 45.4358 34.3376 45.6686 34.3376H61.1491C61.3819 34.3376 61.5648 34.1611 61.5648 33.9364V30.165C61.5648 29.9403 61.3819 29.7637 61.1491 29.7637V29.7557Z" fill="#F8FAFC"/>
<path d="M87.2878 41.8083H70.9011V34.5142H83.081C83.3138 34.5142 83.4967 34.3376 83.4967 34.1129V30.3415C83.4967 30.1168 83.3138 29.9403 83.081 29.9403H70.9011V23.1918H86.8887C87.1215 23.1918 87.3044 23.0153 87.3044 22.7906V19.0191C87.3044 18.7945 87.1215 18.6179 86.8887 18.6179H66.819C66.5862 18.6179 66.4033 18.7945 66.4033 19.0191V45.9809C66.4033 46.2056 66.5862 46.3822 66.819 46.3822H87.2878C87.5206 46.3822 87.7035 46.2056 87.7035 45.9809V42.2095C87.7035 41.9848 87.5206 41.8083 87.2878 41.8083Z" fill="#F8FAFC"/>
<path d="M113.136 34.819C112.562 33.7598 111.664 32.845 110.483 32.1068C109.319 31.3766 107.831 30.8068 106.06 30.4136L100.947 29.2581C99.2597 28.889 98.0375 28.3995 97.2893 27.7977C96.5826 27.228 96.2417 26.5138 96.2417 25.599C96.2417 24.917 96.4579 24.3472 96.8985 23.8337C97.3558 23.3121 97.996 22.8948 98.8024 22.6059C99.6338 22.301 100.598 22.1486 101.687 22.1486C103.242 22.1486 104.589 22.5016 105.686 23.1997C106.784 23.8979 107.482 24.8046 107.831 25.9762C107.881 26.1447 108.047 26.265 108.23 26.265H112.903C113.027 26.265 113.144 26.2169 113.219 26.1206C113.294 26.0323 113.335 25.912 113.31 25.7996C113.036 24.1466 112.387 22.7103 111.381 21.5467C110.384 20.3832 109.053 19.4845 107.441 18.8826C105.844 18.2888 103.974 17.9919 101.887 17.9919C99.692 17.9919 97.7382 18.3129 96.0838 18.9468C94.4127 19.5888 93.0908 20.5036 92.1596 21.6751C91.2118 22.8627 90.738 24.267 90.738 25.8719C90.738 27.8137 91.3781 29.4668 92.6501 30.7667C93.8972 32.0506 95.8094 32.9975 98.3202 33.5752L103.425 34.7709C105.312 35.2122 106.651 35.79 107.407 36.48C108.139 37.1541 108.496 37.9886 108.496 39.0398C108.496 39.8021 108.28 40.4441 107.823 41.0058C107.366 41.5675 106.676 42.0168 105.753 42.3378C104.805 42.6668 103.649 42.8353 102.319 42.8353C101.205 42.8353 100.158 42.6588 99.2098 42.3218C98.2703 41.9847 97.4722 41.5113 96.8403 40.9095C96.2168 40.3157 95.7762 39.6256 95.5351 38.8472C95.4852 38.6787 95.3189 38.5584 95.136 38.5584H90.3056C90.1809 38.5584 90.0645 38.6145 89.9814 38.7028C89.9066 38.7991 89.8733 38.9194 89.8899 39.0318C90.2225 40.6848 90.9458 42.1292 92.0432 43.3248C93.1324 44.5124 94.579 45.4272 96.3166 46.0531C98.0459 46.671 100.058 46.9839 102.311 46.9839C104.564 46.9839 106.667 46.6389 108.413 45.9568C110.184 45.2667 111.564 44.2637 112.52 42.9878C113.485 41.7039 113.975 40.1632 113.975 38.4219C113.975 37.0819 113.684 35.8622 113.111 34.811L113.136 34.819Z" fill="#F8FAFC"/>
</g>
<path opacity="0.4" d="M128 31.5C127.448 31.5 127 31.9477 127 32.5C127 33.0523 127.448 33.5 128 33.5V31.5ZM152.707 33.2071C153.098 32.8166 153.098 32.1834 152.707 31.7929L146.343 25.4289C145.953 25.0384 145.319 25.0384 144.929 25.4289C144.538 25.8195 144.538 26.4526 144.929 26.8431L150.586 32.5L144.929 38.1569C144.538 38.5474 144.538 39.1805 144.929 39.5711C145.319 39.9616 145.953 39.9616 146.343 39.5711L152.707 33.2071ZM128 33.5H152V31.5H128V33.5Z" fill="white"/>
<g clip-path="url(#clip1_866_63299)">
<path d="M239.235 25.0868H245.904V28.0501C246.563 27.0024 247.452 26.1793 248.571 25.5807C249.69 24.9521 251.009 24.6378 252.529 24.6378C254.967 24.6378 256.96 25.4759 258.509 27.1521C260.087 28.7984 260.875 31.3126 260.875 34.695V48.4337H254.207V35.9072C254.207 34.3807 253.848 33.1535 253.131 32.2256C252.414 31.2977 251.382 30.8337 250.034 30.8337C248.714 30.8337 247.696 31.3126 246.979 32.2705C246.262 33.1984 245.904 34.4106 245.904 35.9072V48.4337H239.235V25.0868Z" fill="white"/>
<path d="M264.906 25.0868H271.574V48.4337H264.906V25.0868ZM264.906 16.5562H271.574V22.6174H264.906V16.5562Z" fill="white"/>
<path d="M284.998 48.7031C282.818 48.7031 281.083 48.1045 279.793 46.9072C278.502 45.68 277.857 43.7943 277.857 41.2501V30.6092H274.544V25.0868H277.857V19.1154H284.525V25.0868H289.214V30.6092H284.525V40.1276C284.525 40.816 284.74 41.3997 285.17 41.8786C285.601 42.3276 286.275 42.5521 287.192 42.5521C287.881 42.5521 288.583 42.4324 289.301 42.1929V47.4909C288.899 47.9099 288.297 48.2242 287.494 48.4337C286.719 48.6133 285.887 48.7031 284.998 48.7031Z" fill="white"/>
<path d="M292.383 25.0868H299.051V48.4337H292.383V25.0868ZM292.383 16.5562H299.051V22.6174H292.383V16.5562Z" fill="white"/>
<path d="M312.691 48.8827C310.912 48.8827 309.206 48.4188 307.571 47.4909C305.936 46.563 304.602 45.1861 303.57 43.3603C302.537 41.5344 302.021 39.3344 302.021 36.7603C302.021 34.1861 302.537 31.9861 303.57 30.1603C304.602 28.3344 305.936 26.9575 307.571 26.0296C309.206 25.1018 310.912 24.6378 312.691 24.6378C313.895 24.6378 314.971 24.8324 315.917 25.2215C316.892 25.5807 317.667 25.9997 318.24 26.4786C318.814 26.9575 319.173 27.3766 319.316 27.7358H319.445V25.0868H326.114V48.4337H319.445V45.7848H319.316C319.173 46.1439 318.814 46.563 318.24 47.0419C317.667 47.5208 316.892 47.9548 315.917 48.3439C314.971 48.7031 313.895 48.8827 312.691 48.8827ZM308.603 36.7603C308.603 38.5562 309.134 39.9929 310.195 41.0705C311.285 42.148 312.576 42.6868 314.067 42.6868C315.616 42.6868 316.921 42.163 317.982 41.1154C319.072 40.0378 319.617 38.5861 319.617 36.7603C319.617 34.9344 319.072 33.4977 317.982 32.4501C316.921 31.3725 315.616 30.8337 314.067 30.8337C312.576 30.8337 311.285 31.3725 310.195 32.4501C309.134 33.5276 308.603 34.9643 308.603 36.7603Z" fill="white"/>
<path d="M228.396 25.0868H235.064V48.4337H228.396V25.0868ZM228.396 16.5562H235.064V22.6174H228.396V16.5562Z" fill="white"/>
<ellipse cx="190.069" cy="32.5" rx="23.8509" ry="24.5" fill="white"/>
<path d="M192.074 27.1902C192.107 25.0732 193.566 23.2881 195.56 22.8876V18.7451C193.522 18.9625 191.628 19.9467 190.236 21.5258L190.08 21.7089L189.924 21.5258C188.531 19.9352 186.648 18.9625 184.599 18.7451V22.8876C186.593 23.2881 188.052 25.0732 188.085 27.1788V37.8096C188.052 39.9266 186.593 41.7117 184.599 42.1122V46.2547C186.637 46.0373 188.531 45.0531 189.924 43.474L190.08 43.2909L190.236 43.474C191.628 45.0646 193.511 46.0373 195.56 46.2547V42.1122C193.566 41.7117 192.107 39.9266 192.074 37.821V27.1902Z" fill="black"/>
</g>
<defs>
<clipPath id="clip0_866_63299">
<rect width="114" height="29" fill="white" transform="translate(0 18)"/>
</clipPath>
<clipPath id="clip1_866_63299">
<rect width="160" height="49" fill="white" transform="translate(166 8)"/>
</clipPath>
</defs>
</svg>
