<svg width="299" height="63" viewBox="0 0 299 63" fill="none" xmlns="http://www.w3.org/2000/svg">
<path d="M55.5356 45.8959C55.2321 45.5916 54.7571 45.6048 54.4536 45.8959C46.5106 53.2919 34.0946 53.1199 26.3626 45.3666L19.1321 52.6172C30.8487 64.3662 49.7168 64.5514 61.6578 53.1861C61.9744 52.8818 61.9744 52.3658 61.6578 52.0482L55.5356 45.9091V45.8959Z" fill="white"/>
<path d="M55.5487 16.086C55.2453 16.3903 54.7703 16.3903 54.4536 16.086C46.5106 8.68994 34.0946 8.87517 26.3626 16.6285L19.1321 9.37795C30.8356 -2.35786 49.7036 -2.55632 61.6446 8.80902C61.9744 9.11333 61.9744 9.64257 61.6446 9.96011L55.5356 16.086H55.5487Z" fill="white"/>
<path d="M26.3619 45.3499L40.1237 31.5501C40.4404 31.2325 40.4404 30.7298 40.1237 30.4255L26.3619 16.6256C18.4585 24.5509 18.4585 37.4114 26.3619 45.3499Z" fill="white"/>
<path d="M19.1319 9.38935L12.4687 2.70775C12.1521 2.3902 11.6375 2.3902 11.334 2.70775C3.77361 10.5934 0 20.7944 0 30.9954C0 41.1964 3.77361 51.3975 11.334 59.2831C11.6375 59.6006 12.1521 59.6006 12.4687 59.2831L19.1319 52.6015C13.1812 46.6343 10.1993 38.8149 10.1993 30.9954C10.1993 23.1759 13.1812 15.3565 19.1319 9.38935Z" fill="white"/>
<path d="M101.442 26.7331H96.2525C96.0649 26.7331 95.9041 26.8483 95.8327 27.0166C95.2967 28.4164 94.4124 29.515 93.2066 30.2591C91.9829 31.021 90.5448 31.402 88.9192 31.402C87.1059 31.402 85.516 30.959 84.1941 30.0731C82.8721 29.1872 81.827 27.8848 81.0946 26.2016C80.3532 24.4917 79.9781 22.4186 79.9781 20.0177C79.9781 17.6168 80.3532 15.5437 81.0946 13.8339C81.827 12.1506 82.8721 10.8483 84.1941 9.96235C85.516 9.08527 87.097 8.63344 88.9192 8.63344C90.5716 8.63344 92.0097 9.0144 93.2066 9.75858C94.3856 10.4939 95.2431 11.5393 95.7523 12.8594C95.8148 13.0277 95.9845 13.1429 96.1721 13.1429H101.406C101.549 13.1429 101.674 13.0808 101.764 12.9657C101.853 12.8505 101.871 12.7087 101.835 12.5759C101.335 10.7863 100.468 9.22702 99.2626 7.95127C98.0657 6.67553 96.5651 5.68328 94.8055 5.00997C93.0637 4.34551 91.0897 4 88.9638 4C85.8644 4 83.149 4.67331 80.8891 5.99336C78.6204 7.32226 76.8697 9.21816 75.6817 11.619C74.5027 14.0111 73.8953 16.8283 73.8953 20C73.8953 23.1716 74.4937 25.9889 75.6817 28.381C76.8697 30.7907 78.6204 32.6777 80.8713 34.0066C83.1222 35.3355 85.8286 36 88.9281 36C92.0276 36 94.9305 35.2381 97.2172 33.732C99.5127 32.2171 101.085 30.0377 101.88 27.2558C101.915 27.1229 101.889 26.9812 101.808 26.866C101.728 26.7597 101.594 26.6888 101.451 26.6888L101.442 26.7331Z" fill="white"/>
<path d="M154.446 30.0058H139.799V5.43353C139.799 5.19075 139.601 5 139.35 5H134.345C134.093 5 133.895 5.19075 133.895 5.43353V34.5665C133.895 34.8092 134.093 35 134.345 35H154.446C154.698 35 154.895 34.8092 154.895 34.5665V30.4393C154.895 30.1965 154.698 30.0058 154.446 30.0058Z" fill="white"/>
<path d="M209.445 5H184.345C184.093 5 183.895 5.19075 183.895 5.43353V9.2659C183.895 9.50867 184.093 9.69942 184.345 9.69942H193.957V34.5665C193.957 34.8092 194.155 35 194.407 35H199.42C199.672 35 199.87 34.8092 199.87 34.5665V9.69942H209.445C209.697 9.69942 209.895 9.50867 209.895 9.2659V5.43353C209.895 5.19075 209.697 5 209.445 5Z" fill="white"/>
<path d="M233.006 5.9928C230.806 4.66427 228.24 4 225.395 4C222.551 4 219.985 4.67312 217.784 5.9928C215.575 7.32134 213.853 9.22557 212.67 11.6347C211.487 14.0349 210.895 16.8514 210.895 19.9956C210.895 23.1398 211.495 25.9563 212.67 28.3565C213.853 30.7744 215.575 32.6787 217.784 34.0072C219.985 35.3357 222.542 36 225.395 36C228.248 36 230.806 35.3269 233.006 34.0072C235.216 32.6787 236.938 30.7833 238.121 28.3565C239.304 25.9563 239.895 23.1398 239.895 19.9956C239.895 16.8514 239.295 14.0437 238.121 11.6347C236.929 9.21672 235.216 7.31248 233.006 5.98395V5.9928ZM233.972 19.9956C233.972 22.3338 233.615 24.3797 232.919 26.0714C232.232 27.7365 231.232 29.0208 229.944 29.8887C228.657 30.7567 227.126 31.1996 225.387 31.1996C223.647 31.1996 222.107 30.7567 220.829 29.8887C219.541 29.0208 218.532 27.7365 217.836 26.0626C217.123 24.3709 216.767 22.3249 216.767 19.9867C216.767 17.6485 217.132 15.6025 217.836 13.9109C218.532 12.2458 219.541 10.9615 220.829 10.0847C222.116 9.21672 223.647 8.77387 225.387 8.77387C227.126 8.77387 228.666 9.21672 229.944 10.0847C231.232 10.9527 232.232 12.2369 232.919 13.902C233.615 15.5937 233.972 17.6396 233.972 19.9779V19.9956Z" fill="white"/>
<path d="M270.438 5H265.532C265.281 5 265.084 5.19075 265.084 5.43353V25.5838L250.832 5.19075C250.752 5.06936 250.608 5 250.465 5H245.344C245.093 5 244.895 5.19075 244.895 5.43353V34.5665C244.895 34.8092 245.093 35 245.344 35H250.294C250.545 35 250.743 34.8092 250.743 34.5665V14.4075L264.949 34.8092C265.03 34.9306 265.173 35 265.326 35H270.447C270.698 35 270.895 34.8092 270.895 34.5665V5.43353C270.895 5.19075 270.698 5 270.447 5H270.438Z" fill="white"/>
<path d="M188.859 34.4191L177.813 5.28613C177.751 5.11272 177.582 5 177.395 5H169.646C169.46 5 169.3 5.11272 169.229 5.27746L157.925 34.4104C157.872 34.5405 157.89 34.6965 157.979 34.8092C158.059 34.9306 158.201 35 158.343 35H163.293C163.479 35 163.648 34.8873 163.71 34.7139L167.016 26.0087H179.661L182.869 34.7139C182.931 34.8873 183.1 35 183.287 35H188.45C188.592 35 188.734 34.9306 188.814 34.8179C188.894 34.7052 188.921 34.5491 188.868 34.4191H188.859ZM173.103 9.9422H173.725L177.831 21.0665H168.882L173.103 9.9422Z" fill="white"/>
<path d="M298.446 30.0578H280.752V22.1763H293.904C294.155 22.1763 294.353 21.9855 294.353 21.7428V17.6676C294.353 17.4249 294.155 17.2341 293.904 17.2341H280.752V9.9422H298.015C298.267 9.9422 298.464 9.75144 298.464 9.50867V5.43353C298.464 5.19075 298.267 5 298.015 5H276.344C276.093 5 275.895 5.19075 275.895 5.43353V34.5665C275.895 34.8092 276.093 35 276.344 35H298.446C298.698 35 298.895 34.8092 298.895 34.5665V30.4913C298.895 30.2486 298.698 30.0578 298.446 30.0578Z" fill="white"/>
<path d="M129.446 30.0578H111.752V22.1763H124.904C125.155 22.1763 125.353 21.9855 125.353 21.7428V17.6676C125.353 17.4249 125.155 17.2341 124.904 17.2341H111.752V9.9422H129.015C129.267 9.9422 129.464 9.75144 129.464 9.50867V5.43353C129.464 5.19075 129.267 5 129.015 5H107.344C107.093 5 106.895 5.19075 106.895 5.43353V34.5665C106.895 34.8092 107.093 35 107.344 35H129.446C129.698 35 129.895 34.8092 129.895 34.5665V30.4913C129.895 30.2486 129.698 30.0578 129.446 30.0578Z" fill="white"/>
<path d="M75.1553 44.8H79.5953C80.5819 44.8 81.4353 44.9933 82.1553 45.38C82.8886 45.7667 83.4419 46.3067 83.8153 47C84.2019 47.68 84.3953 48.4533 84.3953 49.32C84.3953 50.2 84.2019 50.9867 83.8153 51.68C83.4419 52.3733 82.8886 52.9133 82.1553 53.3C81.4353 53.6867 80.5819 53.88 79.5953 53.88H76.3953V59H75.1553V44.8ZM79.4953 52.7C80.6286 52.7 81.5153 52.4067 82.1553 51.82C82.7953 51.22 83.1153 50.3867 83.1153 49.32C83.1153 48.2533 82.7953 47.4333 82.1553 46.86C81.5153 46.2733 80.6286 45.98 79.4953 45.98H76.3953V52.7H79.4953ZM91.1618 59.2C90.2418 59.2 89.3685 58.9867 88.5418 58.56C87.7285 58.1333 87.0685 57.5133 86.5618 56.7C86.0552 55.8733 85.8018 54.9067 85.8018 53.8C85.8018 52.6933 86.0552 51.7333 86.5618 50.92C87.0685 50.0933 87.7285 49.4667 88.5418 49.04C89.3685 48.6133 90.2418 48.4 91.1618 48.4C92.0818 48.4 92.9485 48.6133 93.7618 49.04C94.5885 49.4667 95.2552 50.0933 95.7618 50.92C96.2685 51.7333 96.5218 52.6933 96.5218 53.8C96.5218 54.9067 96.2685 55.8733 95.7618 56.7C95.2552 57.5133 94.5885 58.1333 93.7618 58.56C92.9485 58.9867 92.0818 59.2 91.1618 59.2ZM87.0218 53.8C87.0218 54.68 87.2152 55.4467 87.6018 56.1C87.9885 56.74 88.4952 57.2333 89.1218 57.58C89.7618 57.9133 90.4418 58.08 91.1618 58.08C91.8818 58.08 92.5552 57.9133 93.1818 57.58C93.8218 57.2333 94.3352 56.74 94.7218 56.1C95.1085 55.4467 95.3018 54.68 95.3018 53.8C95.3018 52.92 95.1085 52.16 94.7218 51.52C94.3352 50.8667 93.8218 50.3733 93.1818 50.04C92.5552 49.6933 91.8818 49.52 91.1618 49.52C90.4418 49.52 89.7618 49.6933 89.1218 50.04C88.4952 50.3733 87.9885 50.8667 87.6018 51.52C87.2152 52.16 87.0218 52.92 87.0218 53.8ZM106.092 50.1L102.512 59H101.372L97.4125 48.6H98.6525L101.952 57.42L105.492 48.6H106.692L110.232 57.42L113.532 48.6H114.772L110.812 59H109.672L106.092 50.1ZM120.934 59.2C119.987 59.2 119.114 58.9867 118.314 58.56C117.514 58.1333 116.867 57.5133 116.374 56.7C115.894 55.8733 115.654 54.9 115.654 53.78C115.654 52.6733 115.894 51.7133 116.374 50.9C116.854 50.0867 117.487 49.4667 118.274 49.04C119.06 48.6133 119.9 48.4 120.794 48.4C121.647 48.4 122.454 48.6 123.214 49C123.974 49.3867 124.587 49.9733 125.054 50.76C125.534 51.5333 125.774 52.4733 125.774 53.58C125.774 53.8733 125.767 54.0933 125.754 54.24H116.814C116.88 55.0533 117.107 55.7533 117.494 56.34C117.894 56.9267 118.407 57.3733 119.034 57.68C119.66 57.9733 120.34 58.12 121.074 58.12C121.74 58.12 122.36 58 122.934 57.76C123.52 57.52 124 57.1733 124.374 56.72L125.014 57.38C124.547 57.9533 123.954 58.4 123.234 58.72C122.514 59.04 121.747 59.2 120.934 59.2ZM124.654 53.26C124.64 52.4733 124.454 51.8 124.094 51.24C123.734 50.6667 123.26 50.2333 122.674 49.94C122.1 49.6333 121.474 49.48 120.794 49.48C120.14 49.48 119.52 49.6267 118.934 49.92C118.36 50.2133 117.88 50.6467 117.494 51.22C117.107 51.78 116.88 52.46 116.814 53.26H124.654ZM127.964 48.6H129.184V51.02C129.411 50.2467 129.804 49.62 130.364 49.14C130.938 48.6467 131.671 48.4 132.564 48.4C132.791 48.4 132.971 48.42 133.104 48.46V49.6C132.944 49.56 132.771 49.54 132.584 49.54C131.944 49.54 131.364 49.7 130.844 50.02C130.338 50.34 129.931 50.8 129.624 51.4C129.331 52 129.184 52.6933 129.184 53.48V59H127.964V48.6ZM139.789 59.2C138.843 59.2 137.969 58.9867 137.169 58.56C136.369 58.1333 135.723 57.5133 135.229 56.7C134.749 55.8733 134.509 54.9 134.509 53.78C134.509 52.6733 134.749 51.7133 135.229 50.9C135.709 50.0867 136.343 49.4667 137.129 49.04C137.916 48.6133 138.756 48.4 139.649 48.4C140.503 48.4 141.309 48.6 142.069 49C142.829 49.3867 143.443 49.9733 143.909 50.76C144.389 51.5333 144.629 52.4733 144.629 53.58C144.629 53.8733 144.623 54.0933 144.609 54.24H135.669C135.736 55.0533 135.963 55.7533 136.349 56.34C136.749 56.9267 137.263 57.3733 137.889 57.68C138.516 57.9733 139.196 58.12 139.929 58.12C140.596 58.12 141.216 58 141.789 57.76C142.376 57.52 142.856 57.1733 143.229 56.72L143.869 57.38C143.403 57.9533 142.809 58.4 142.089 58.72C141.369 59.04 140.603 59.2 139.789 59.2ZM143.509 53.26C143.496 52.4733 143.309 51.8 142.949 51.24C142.589 50.6667 142.116 50.2333 141.529 49.94C140.956 49.6333 140.329 49.48 139.649 49.48C138.996 49.48 138.376 49.6267 137.789 49.92C137.216 50.2133 136.736 50.6467 136.349 51.22C135.963 51.78 135.736 52.46 135.669 53.26H143.509ZM155.7 59V56.78H155.64C155.333 57.4733 154.8 58.0533 154.04 58.52C153.28 58.9733 152.426 59.2 151.48 59.2C150.586 59.2 149.746 58.9933 148.96 58.58C148.173 58.1533 147.533 57.5333 147.04 56.72C146.56 55.9067 146.32 54.9333 146.32 53.8C146.32 52.6667 146.56 51.6933 147.04 50.88C147.533 50.0667 148.173 49.4533 148.96 49.04C149.746 48.6133 150.586 48.4 151.48 48.4C152.426 48.4 153.28 48.6333 154.04 49.1C154.8 49.5533 155.333 50.1267 155.64 50.82H155.7V44.8H156.92V59H155.7ZM147.54 53.8C147.54 54.72 147.733 55.5 148.12 56.14C148.506 56.78 149.013 57.2667 149.64 57.6C150.266 57.92 150.933 58.08 151.64 58.08C152.346 58.08 153.013 57.92 153.64 57.6C154.266 57.2667 154.773 56.78 155.16 56.14C155.546 55.4867 155.74 54.7067 155.74 53.8C155.74 52.8933 155.546 52.12 155.16 51.48C154.773 50.8267 154.266 50.34 153.64 50.02C153.013 49.6867 152.346 49.52 151.64 49.52C150.933 49.52 150.266 49.6867 149.64 50.02C149.013 50.34 148.506 50.82 148.12 51.46C147.733 52.1 147.54 52.88 147.54 53.8ZM165.352 44.8V50.82H165.412C165.719 50.1267 166.252 49.5533 167.012 49.1C167.772 48.6333 168.626 48.4 169.572 48.4C170.466 48.4 171.306 48.6133 172.092 49.04C172.879 49.4533 173.512 50.0667 173.992 50.88C174.486 51.6933 174.732 52.6667 174.732 53.8C174.732 54.9333 174.486 55.9067 173.992 56.72C173.512 57.5333 172.879 58.1533 172.092 58.58C171.306 58.9933 170.466 59.2 169.572 59.2C168.626 59.2 167.772 58.9733 167.012 58.52C166.252 58.0533 165.719 57.4733 165.412 56.78H165.352V59H164.132V44.8H165.352ZM165.312 53.8C165.312 54.7067 165.506 55.4867 165.892 56.14C166.279 56.78 166.786 57.2667 167.412 57.6C168.039 57.92 168.706 58.08 169.412 58.08C170.119 58.08 170.786 57.92 171.412 57.6C172.039 57.2667 172.546 56.78 172.932 56.14C173.319 55.5 173.512 54.72 173.512 53.8C173.512 52.88 173.319 52.1 172.932 51.46C172.546 50.82 172.039 50.34 171.412 50.02C170.786 49.6867 170.119 49.52 169.412 49.52C168.706 49.52 168.039 49.6867 167.412 50.02C166.786 50.34 166.279 50.8267 165.892 51.48C165.506 52.12 165.312 52.8933 165.312 53.8ZM179.819 58.92L175.419 48.6H176.699L180.419 57.44L184.139 48.6H185.419L180.979 59L179.299 62.8H178.099L179.819 58.92Z" fill="#A1A6AA"/>
<path d="M191.702 47.56H195.112V59H191.702V47.56ZM191.702 43.38H195.112V46.35H191.702V43.38ZM197.35 47.56H200.76V49.012C201.097 48.4987 201.552 48.0953 202.124 47.802C202.696 47.494 203.371 47.34 204.148 47.34C205.395 47.34 206.414 47.7507 207.206 48.572C208.013 49.3787 208.416 50.6107 208.416 52.268V59H205.006V52.862C205.006 52.114 204.823 51.5127 204.456 51.058C204.089 50.6033 203.561 50.376 202.872 50.376C202.197 50.376 201.677 50.6107 201.31 51.08C200.943 51.5347 200.76 52.1287 200.76 52.862V59H197.35V47.56ZM210.647 47.56H214.057V59H210.647V47.56ZM210.647 43.38H214.057V46.35H210.647V43.38ZM221.092 59.132C219.977 59.132 219.09 58.8387 218.43 58.252C217.77 57.6507 217.44 56.7267 217.44 55.48V50.266H215.746V47.56H217.44V44.634H220.85V47.56H223.248V50.266H220.85V54.93C220.85 55.2673 220.96 55.5533 221.18 55.788C221.4 56.008 221.744 56.118 222.214 56.118C222.566 56.118 222.925 56.0593 223.292 55.942V58.538C223.086 58.7433 222.778 58.8973 222.368 59C221.972 59.088 221.546 59.132 221.092 59.132ZM225.038 47.56H228.448V59H225.038V47.56ZM225.038 43.38H228.448V46.35H225.038V43.38ZM235.592 59.22C234.683 59.22 233.81 58.9927 232.974 58.538C232.138 58.0833 231.456 57.4087 230.928 56.514C230.4 55.6193 230.136 54.5413 230.136 53.28C230.136 52.0187 230.4 50.9407 230.928 50.046C231.456 49.1513 232.138 48.4767 232.974 48.022C233.81 47.5673 234.683 47.34 235.592 47.34C236.208 47.34 236.758 47.4353 237.242 47.626C237.741 47.802 238.137 48.0073 238.43 48.242C238.724 48.4767 238.907 48.682 238.98 48.858H239.046V47.56H242.456V59H239.046V57.702H238.98C238.907 57.878 238.724 58.0833 238.43 58.318C238.137 58.5527 237.741 58.7653 237.242 58.956C236.758 59.132 236.208 59.22 235.592 59.22ZM233.502 53.28C233.502 54.16 233.774 54.864 234.316 55.392C234.874 55.92 235.534 56.184 236.296 56.184C237.088 56.184 237.756 55.9273 238.298 55.414C238.856 54.886 239.134 54.1747 239.134 53.28C239.134 52.3853 238.856 51.6813 238.298 51.168C237.756 50.64 237.088 50.376 236.296 50.376C235.534 50.376 234.874 50.64 234.316 51.168C233.774 51.696 233.502 52.4 233.502 53.28Z" fill="white"/>
</svg>
