<svg width="322" height="49" viewBox="0 0 322 49" fill="none" xmlns="http://www.w3.org/2000/svg">
<path d="M61.3369 29.6012C61.3369 20.3894 68.3434 13.4531 77.6569 13.4531C85.1685 13.4531 91.0909 17.9776 92.9637 24.8783C93.1261 25.4768 92.6683 26.0635 92.0509 26.0635H85.5998C85.2571 26.0635 84.9351 25.8768 84.7756 25.5716C83.3608 22.8487 80.7259 21.2664 77.6067 21.2664C73.1139 21.2664 69.7347 24.8842 69.7347 29.6457C69.7347 34.4071 73.17 38.1168 77.6067 38.1168C80.7761 38.1168 83.3194 36.4427 84.7668 33.4738C84.9204 33.1568 85.2512 32.9612 85.6027 32.9612H92.1632C92.7776 32.9612 93.2325 33.5449 93.0789 34.1405C91.2416 41.216 85.2069 45.9301 77.6067 45.9301C68.3877 45.9301 61.334 38.8101 61.334 29.5983L61.3369 29.6012Z" fill="white"/>
<path d="M129.134 29.5855C129.134 30.1099 129.111 30.6314 129.066 31.1558C129.025 31.6447 128.614 32.021 128.127 32.021H106.969C106.339 32.021 105.884 32.6314 106.065 33.2388C107.075 36.661 109.662 38.5277 113.272 38.5277C115.972 38.5277 118.217 37.3277 119.525 35.3632C119.697 35.1055 119.998 34.9603 120.308 34.9603H127.117C127.784 34.9603 128.251 35.6447 127.991 36.261C125.468 42.2077 119.915 45.9291 113.275 45.9291C104.227 45.9291 97.3804 38.901 97.3804 29.6892C97.3804 20.4773 104.18 13.4492 113.275 13.4492C122.37 13.4492 129.14 20.7262 129.14 29.5795L129.134 29.5855ZM107.317 26.347H119.475C120.163 26.347 120.624 25.627 120.332 25.0018C118.979 22.107 116.515 20.5514 113.269 20.5514C110.023 20.5514 107.645 22.1959 106.446 25.0344C106.183 25.6566 106.644 26.347 107.317 26.347Z" fill="white"/>
<path d="M136.536 3.43457H142.937C143.457 3.43457 143.879 3.85827 143.879 4.37975V45.1174C143.879 45.6389 143.457 46.0626 142.937 46.0626H136.536C136.016 46.0626 135.594 45.6389 135.594 45.1174V4.37975C135.594 3.85827 136.016 3.43457 136.536 3.43457Z" fill="white"/>
<path d="M183.593 15.3509V45.1552C183.593 45.6767 183.171 46.1004 182.651 46.1004H177.875C177.423 46.1004 177.036 45.7804 176.95 45.336L176.386 42.3967C173.754 44.7078 170.322 46.0619 166.455 46.0619C157.236 46.0619 150.38 39.0812 150.38 29.7775C150.38 20.4738 157.236 13.585 166.455 13.585C170.39 13.585 173.875 14.9746 176.522 17.3449L177.204 15.0783C177.325 14.6783 177.692 14.4057 178.105 14.4087H182.648C183.168 14.4087 183.59 14.8324 183.59 15.3538L183.593 15.3509ZM175.473 29.7775C175.473 24.9479 171.943 21.3538 167.132 21.3538C162.32 21.3538 158.778 24.9597 158.778 29.7775C158.778 34.5953 162.317 38.2012 167.132 38.2012C171.946 38.2012 175.473 34.6042 175.473 29.7775Z" fill="white"/>
<path d="M210.866 39.6069V45.118C210.866 45.6395 210.444 46.0632 209.924 46.0632H204.979C198.235 46.0632 194.094 41.9091 194.094 35.0854V22.9492C194.094 22.4277 193.672 22.004 193.152 22.004H189.492C188.972 22.004 188.55 21.5803 188.55 21.0588V16.2677C188.55 15.7462 188.972 15.3225 189.492 15.3225H193.152C193.672 15.3225 194.094 14.8988 194.094 14.3773V8.24401C194.094 7.72253 194.517 7.29883 195.036 7.29883H201.299C201.818 7.29883 202.241 7.72253 202.241 8.24401V14.3773C202.241 14.8988 202.663 15.3225 203.183 15.3225H209.755C210.275 15.3225 210.698 15.7462 210.698 16.2677V21.0588C210.698 21.5803 210.275 22.004 209.755 22.004H203.322C202.802 22.004 202.38 22.4277 202.38 22.9492V33.9862C202.38 36.958 204.081 38.6647 207.1 38.6647H209.924C210.444 38.6647 210.866 39.0884 210.866 39.6098V39.6069Z" fill="white"/>
<path d="M214.792 29.823C214.792 20.4985 221.866 13.583 231.357 13.583C240.848 13.583 247.922 20.5074 247.922 29.823C247.922 39.1385 240.803 46.0629 231.357 46.0629C221.911 46.0629 214.792 39.094 214.792 29.823ZM239.524 29.823C239.524 24.8452 236.133 21.3963 231.357 21.3963C226.581 21.3963 223.19 24.8422 223.19 29.823C223.19 34.8037 226.581 38.2466 231.357 38.2466C236.133 38.2466 239.524 34.8007 239.524 29.823Z" fill="white"/>
<path d="M283.224 27.4323V45.1181C283.224 45.6396 282.801 46.0633 282.281 46.0633H275.877C275.358 46.0633 274.935 45.6396 274.935 45.1181V28.7774C274.935 24.1315 273.178 21.8886 269.592 21.8886C265.32 21.8886 262.715 24.9582 262.715 29.9034V45.1152C262.715 45.6367 262.293 46.0604 261.773 46.0604H255.372C254.852 46.0604 254.43 45.6367 254.43 45.1152V16.2649C254.43 15.7434 254.852 15.3197 255.372 15.3197H259.493C259.871 15.3197 260.21 15.5449 260.358 15.8945L261.729 19.1212C264.047 16.3508 267.71 14.5908 271.881 14.5908C278.867 14.5908 283.221 19.6456 283.221 27.4293L283.224 27.4323Z" fill="white"/>
<path d="M321.121 29.7144C321.121 30.2388 321.097 30.7603 321.053 31.2847C321.012 31.7736 320.601 32.1499 320.114 32.1499H298.955C298.326 32.1499 297.871 32.7603 298.051 33.3677C299.062 36.7899 301.649 38.6566 305.259 38.6566C307.959 38.6566 310.204 37.4566 311.512 35.4921C311.683 35.2344 311.985 35.0892 312.295 35.0892H319.103C319.771 35.0892 320.238 35.7736 319.978 36.3899C317.455 42.3366 311.902 46.058 305.262 46.058C296.214 46.058 289.367 39.0299 289.367 29.8181C289.367 20.6063 296.167 13.5781 305.262 13.5781C314.357 13.5781 321.127 20.8551 321.127 29.7085L321.121 29.7144ZM299.304 26.4759H311.462C312.15 26.4759 312.611 25.7559 312.319 25.1307C310.966 22.2359 308.502 20.6803 305.256 20.6803C302.01 20.6803 299.632 22.3248 298.433 25.1633C298.17 25.7855 298.63 26.4759 299.304 26.4759Z" fill="white"/>
<path d="M7.03076 41.7372C11.5641 46.2706 17.5909 48.7672 24.0009 48.7672C30.411 48.7672 36.4377 46.2706 40.9711 41.7372C45.5044 37.2038 48.0011 31.1771 48.0011 24.767C48.0011 18.357 45.5044 12.3302 40.9711 7.79688L35.3143 13.4536C38.2144 16.3536 40.0077 20.3537 40.0077 24.767C40.0077 29.0437 38.341 33.0638 35.3177 36.0871C32.2943 39.1105 28.2743 40.7772 23.9976 40.7772C19.5842 40.7772 15.5808 38.9805 12.6841 36.0838L7.03076 41.7372Z" fill="url(#paint0_linear_158_13030)"/>
<path d="M40.9704 7.79764C36.437 3.26427 30.4103 0.767578 24.0002 0.767578C17.5902 0.767578 11.5634 3.26427 7.03006 7.79764C2.49669 12.331 0 18.3577 0 24.7678C0 31.1778 2.49669 37.2046 7.03006 41.7379L12.6868 36.0812C9.78675 33.1812 7.99341 29.1812 7.99341 24.7678C7.99341 20.4911 9.66009 16.4711 12.6834 13.4477C15.7068 10.4243 19.7268 8.75765 24.0035 8.75765C28.4169 8.75765 32.4203 10.5543 35.317 13.451L40.9704 7.79764Z" fill="#5942F3"/>
<path d="M11.2169 40.2705C12.779 38.7084 13.4365 36.8331 12.6854 36.082C11.9343 35.3309 10.059 35.9883 8.49691 37.5505C6.9348 39.1126 6.27735 40.9878 7.02847 41.7389C7.77958 42.49 9.65482 41.8326 11.2169 40.2705Z" fill="#1F00D9"/>
<path d="M39.5001 11.9892C41.0622 10.4271 41.7197 8.55188 40.9686 7.80077C40.2175 7.04965 38.3422 7.70709 36.7801 9.2692C35.218 10.8313 34.5606 12.7066 35.3117 13.4577C36.0628 14.2088 37.938 13.5513 39.5001 11.9892Z" fill="#1F00D9"/>
<path d="M15.5093 33.2555C20.1893 37.9356 27.806 37.9356 32.4894 33.2555C37.1695 28.5755 37.1695 20.9588 32.4894 16.2754L26.8294 21.9454C28.3861 23.5021 28.3861 26.0355 26.8294 27.5922C25.2727 29.1488 22.7393 29.1488 21.1827 27.5922L15.5126 33.2522L15.5093 33.2555Z" fill="#5942F3"/>
<path d="M21.1695 27.5863C19.6128 26.0296 19.6128 23.4963 21.1695 21.9396C22.7262 20.3829 25.2595 20.3829 26.8162 21.9396L32.4863 16.2796C27.8062 11.5995 20.1895 11.5995 15.5061 16.2796C10.8261 20.9596 10.8261 28.5763 15.5061 33.2597L21.1662 27.5897L21.1695 27.5863Z" fill="url(#paint1_linear_158_13030)"/>
<path d="M31.0167 20.4658C32.5789 18.9037 33.2363 17.0284 32.4852 16.2773C31.7341 15.5262 29.8588 16.1837 28.2967 17.7458C26.7346 19.3079 26.0772 21.1831 26.8283 21.9342C27.5794 22.6853 29.4546 22.0279 31.0167 20.4658Z" fill="#1F00D9"/>
<path d="M19.6994 31.7881C21.2615 30.2259 21.9189 28.3507 21.1678 27.5996C20.4167 26.8485 18.5414 27.5059 16.9793 29.068C15.4172 30.6301 14.7598 32.5054 15.5109 33.2565C16.262 34.0076 18.1372 33.3502 19.6994 31.7881Z" fill="#1F00D9"/>
<defs>
<linearGradient id="paint0_linear_158_13030" x1="15.5161" y1="50.2195" x2="49.4552" y2="16.2804" gradientUnits="userSpaceOnUse">
<stop stop-color="#AAC700"/>
<stop offset="1" stop-color="#D7F067"/>
</linearGradient>
<linearGradient id="paint1_linear_158_13030" x1="11.9961" y1="23.013" x2="32.4863" y2="23.013" gradientUnits="userSpaceOnUse">
<stop stop-color="#AAC700"/>
<stop offset="1" stop-color="#D7F067"/>
</linearGradient>
</defs>
</svg>
