<svg width="193" height="41" viewBox="0 0 193 41" fill="none" xmlns="http://www.w3.org/2000/svg">
<circle cx="126.586" cy="20.25" r="20.25" fill="#AA647B"/>
<path opacity="0.6" fill-rule="evenodd" clip-rule="evenodd" d="M115.5 3.3018C118.685 1.21411 122.494 0 126.586 0C137.77 0 146.836 9.06623 146.836 20.25C146.836 24.3392 145.624 28.1454 143.54 31.3288C140.355 33.4165 136.546 34.6306 132.453 34.6306C121.269 34.6306 112.203 25.5643 112.203 14.3806C112.203 10.2913 113.415 6.48517 115.5 3.3018Z" fill="#F48FB1"/>
<path fill-rule="evenodd" clip-rule="evenodd" d="M119.385 1.31805C121.623 0.466373 124.05 0 126.587 0C137.771 0 146.837 9.06623 146.837 20.25C146.837 22.7833 146.372 25.208 145.522 27.4433C143.284 28.295 140.857 28.7614 138.32 28.7614C127.137 28.7614 118.07 19.6951 118.07 8.51137C118.07 5.97802 118.536 3.55333 119.385 1.31805Z" fill="#F48FB1"/>
<path fill-rule="evenodd" clip-rule="evenodd" d="M124.105 0.150972C124.919 0.0513101 125.748 0 126.59 0C137.774 0 146.84 9.06623 146.84 20.25C146.84 21.0931 146.788 21.9241 146.688 22.7401C145.874 22.8398 145.044 22.8911 144.203 22.8911C133.019 22.8911 123.953 13.8249 123.953 2.6411C123.953 1.79803 124.005 0.966996 124.105 0.150972Z" fill="#F6A5C0"/>
<path d="M12.1518 37.125C9.67318 37.125 7.53118 36.5666 5.72578 35.4497C3.93568 34.3328 2.56633 32.7875 1.61773 30.8138C0.669125 28.8401 0.187175 26.5833 0.171875 24.0435C0.187175 21.4884 0.676775 19.224 1.64068 17.2503C2.61988 15.2613 4.01218 13.716 5.81758 12.6144C7.63828 11.5128 9.77262 10.962 12.2206 10.962C14.0107 10.962 15.6402 11.268 17.109 11.88C18.5931 12.492 19.8324 13.3641 20.8269 14.4963C21.8367 15.6285 22.5481 16.9673 22.9612 18.5126L18.1876 19.8896C17.7133 18.5126 16.933 17.4339 15.8467 16.6536C14.7757 15.8733 13.5441 15.4832 12.1518 15.4832C9.88738 15.4832 8.17378 16.2635 7.01098 17.8241C5.86348 19.3694 5.28208 21.4425 5.26678 24.0435C5.28208 26.6751 5.87878 28.7636 7.05688 30.3089C8.23498 31.8389 9.93328 32.6039 12.1518 32.6039C13.6512 32.6039 14.8828 32.2596 15.8467 31.5711C16.8259 30.8673 17.5756 29.8346 18.0958 28.4729L22.9612 29.6204C22.1503 32.0531 20.8116 33.912 18.945 35.1972C17.0784 36.4824 14.814 37.125 12.1518 37.125Z" fill="white"/>
<path d="M31.268 25.3976C31.4669 27.7079 32.1631 29.4903 33.3565 30.7449C34.5499 31.9842 36.187 32.6039 38.2678 32.6039C39.7519 32.6039 41.0447 32.2673 42.1463 31.5941C43.2479 30.9209 44.1047 29.9417 44.7167 28.6565L49.4215 30.1482C48.4729 32.3361 47.0194 34.0497 45.061 35.289C43.1026 36.513 40.9147 37.125 38.4973 37.125C36.0493 37.125 33.892 36.5895 32.0254 35.5185C30.1588 34.4322 28.7053 32.9175 27.6649 30.9744C26.6398 29.016 26.1272 26.7746 26.1272 24.2501C26.1272 21.5726 26.6321 19.2317 27.6419 17.2274C28.6517 15.2231 30.0746 13.6778 31.9106 12.5915C33.7466 11.5052 35.8657 10.962 38.2678 10.962C40.6393 10.962 42.6895 11.4899 44.4184 12.5456C46.1473 13.6013 47.4707 15.116 48.3887 17.0897C49.322 19.0481 49.7887 21.366 49.7887 24.0435C49.7887 24.3342 49.7734 24.7856 49.7428 25.3976H31.268ZM38.4514 15.2078C36.4165 15.2078 34.8023 15.7586 33.6089 16.8602C32.4308 17.9465 31.6888 19.5453 31.3828 21.6567H44.8315C44.5714 19.4688 43.9135 17.847 42.8578 16.7913C41.8174 15.7356 40.3486 15.2078 38.4514 15.2078Z" fill="white"/>
<path d="M60.6874 36.4365H55.8908V2.70001H60.6874V36.4365Z" fill="white"/>
<path d="M87.4201 15.6897C87.772 16.4394 88.0015 17.2427 88.1086 18.0995C88.231 18.941 88.2922 19.9661 88.2922 21.1748V36.4365H84.0465V32.8334C83.0214 34.2869 81.7744 35.3655 80.3056 36.0693C78.8521 36.7731 77.1232 37.125 75.1189 37.125C73.3441 37.125 71.8294 36.7961 70.5748 36.1382C69.3202 35.465 68.364 34.5699 67.7061 33.453C67.0635 32.3208 66.7422 31.0662 66.7422 29.6892C66.7422 26.0325 68.6929 23.5845 72.5944 22.3452C73.7725 21.9933 75.1036 21.695 76.5877 21.4502C78.0871 21.1901 80.1603 20.8764 82.8072 20.5092L83.5645 20.4174C83.488 18.6732 83.0137 17.4033 82.1416 16.6077C81.2695 15.7968 79.8772 15.3914 77.9647 15.3914C76.5724 15.3914 75.3484 15.7127 74.2927 16.3553C73.237 16.9979 72.5103 17.9771 72.1125 19.2929L67.6372 17.9159C68.2492 15.728 69.4273 14.022 71.1715 12.798C72.931 11.574 75.2107 10.962 78.0106 10.962C80.2903 10.962 82.2411 11.3522 83.8629 12.1325C85.4847 12.9128 86.6704 14.0985 87.4201 15.6897ZM75.9681 33.2006C77.2686 33.2006 78.4161 32.9711 79.4106 32.5121C80.4051 32.0378 81.2007 31.4258 81.7974 30.6761C82.4094 29.9264 82.8148 29.1308 83.0137 28.2893C83.3197 27.4019 83.488 26.109 83.5186 24.4107L82.9219 24.5025C80.6881 24.8238 79.0128 25.0839 77.8959 25.2828C76.7943 25.4817 75.7998 25.7112 74.9124 25.9713C73.8414 26.3385 72.9999 26.8128 72.3879 27.3942C71.7912 27.9756 71.4928 28.7253 71.4928 29.6433C71.4928 30.6684 71.8677 31.5176 72.6174 32.1908C73.3824 32.864 74.4993 33.2006 75.9681 33.2006Z" fill="white"/>
<path d="M101.608 15.5061V26.4533V27.7614C101.608 28.5417 101.638 29.1767 101.7 29.6663C101.761 30.1406 101.899 30.5537 102.113 30.9056C102.48 31.5176 102.992 31.9613 103.65 32.2367C104.324 32.4968 105.142 32.6268 106.106 32.6268C106.932 32.6268 107.888 32.5427 108.975 32.3744V36.4365C107.552 36.7119 106.244 36.8496 105.05 36.8496C103.337 36.8496 101.837 36.5742 100.552 36.0234C99.2822 35.4726 98.3336 34.6082 97.7063 33.4301C97.3238 32.711 97.0714 31.9766 96.949 31.2269C96.8419 30.4619 96.7883 29.5362 96.7883 28.4499V26.6828V15.5061H92.0377V11.6505H96.7883V4.76551H101.608V11.6505H108.975V15.5061H101.608Z" fill="white"/>
<path d="M154.547 10.985C157.148 10.985 159.176 11.6429 160.629 12.9587C162.098 14.2592 163.085 15.7815 163.59 17.5257C164.095 19.2699 164.347 20.9835 164.347 22.6665V36.4365H159.482V24.2501C159.482 21.8174 159.03 19.7595 158.128 18.0765C157.225 16.3782 155.588 15.5291 153.216 15.5291C151.334 15.5291 149.812 16.1717 148.649 17.4569C147.502 18.7421 146.928 20.7693 146.928 23.5386V36.4365H142.063V11.6505H146.354V14.6111C147.287 13.4483 148.443 12.5532 149.82 11.9259C151.197 11.2986 152.773 10.985 154.547 10.985Z" fill="white"/>
<path d="M174.315 25.3976C174.514 27.7079 175.21 29.4903 176.403 30.7449C177.597 31.9842 179.234 32.6039 181.314 32.6039C182.799 32.6039 184.091 32.2673 185.193 31.5941C186.295 30.9209 187.151 29.9417 187.763 28.6565L192.468 30.1482C191.52 32.3361 190.066 34.0497 188.108 35.289C186.149 36.513 183.961 37.125 181.544 37.125C179.096 37.125 176.939 36.5895 175.072 35.5185C173.206 34.4322 171.752 32.9175 170.712 30.9744C169.687 29.016 169.174 26.7746 169.174 24.2501C169.174 21.5726 169.679 19.2317 170.689 17.2274C171.698 15.2231 173.121 13.6778 174.957 12.5915C176.793 11.5052 178.912 10.962 181.314 10.962C183.686 10.962 185.736 11.4899 187.465 12.5456C189.194 13.6013 190.517 15.116 191.435 17.0897C192.369 19.0481 192.835 21.366 192.835 24.0435C192.835 24.3342 192.82 24.7856 192.789 25.3976H174.315ZM181.498 15.2078C179.463 15.2078 177.849 15.7586 176.656 16.8602C175.478 17.9465 174.736 19.5453 174.43 21.6567H187.878C187.618 19.4688 186.96 17.847 185.905 16.7913C184.864 15.7356 183.395 15.2078 181.498 15.2078Z" fill="white"/>
</svg>
