<svg width="24" height="24" viewBox="0 0 24 24" fill="none" xmlns="http://www.w3.org/2000/svg">
<circle cx="12" cy="12" r="12" fill="#9793F3"/>
<path d="M17.7837 12.0419L14.867 13.2082C14.6458 13.2981 14.5 13.5119 14.5 13.75C14.5 15.288 15.1295 17.8514 17.7764 18.9544C17.9198 19.0152 18.0826 19.0152 18.226 18.9544C20.8705 17.8514 21.5 15.288 21.5 13.75C21.5 13.5119 21.3542 13.2981 21.133 13.2082L18.2163 12.0419C18.0778 11.986 17.9222 11.986 17.7837 12.0419ZM20.3188 14.1388C20.224 15.3706 19.6576 16.9742 18 17.776V13.2106L20.3188 14.1388Z" fill="#F7F2FE"/>
<path fill-rule="evenodd" clip-rule="evenodd" d="M12 9.25C12.9665 9.25 13.75 8.4665 13.75 7.5C13.75 6.5335 12.9665 5.75 12 5.75C11.0335 5.75 10.25 6.5335 10.25 7.5C10.25 8.4665 11.0335 9.25 12 9.25ZM12 11C13.933 11 15.5 9.433 15.5 7.5C15.5 5.567 13.933 4 12 4C10.067 4 8.5 5.567 8.5 7.5C8.5 9.433 10.067 11 12 11Z" fill="#F7F2FE"/>
<path fill-rule="evenodd" clip-rule="evenodd" d="M9.36266 12.2592C10.2029 12.0047 11.0986 11.8751 12 11.8751C12.9014 11.8751 13.7971 12.0047 14.6373 12.2592C15.4773 12.5136 16.2521 12.8898 16.9139 13.3737C17.5757 13.8576 16.1167 14.4437 16.4921 15.1063C16.7089 15.4891 16.8675 15.8923 16.9629 16.308C17.1938 17.3153 16.3043 18.0001 15.4975 18.0001L6.5025 18.0001C5.69574 18.0001 4.80621 17.3153 5.03714 16.308C5.13245 15.8923 5.29109 15.4891 5.50791 15.1063C5.88331 14.4437 6.42426 13.8576 7.08613 13.3737C7.74789 12.8898 8.5227 12.5136 9.36266 12.2592ZM12 13.4063C11.2512 13.4063 10.513 13.5143 9.82865 13.7215C9.14406 13.9288 8.53363 14.2294 8.02856 14.5987C7.52359 14.9679 7.13896 15.3946 6.88287 15.8466C6.76706 16.051 6.67826 16.2593 6.61572 16.4688L15.3843 16.4688C15.3217 16.2593 15.2329 16.051 15.1171 15.8466C14.861 15.3946 16.4764 14.9679 15.9714 14.5987C15.4664 14.2294 14.8559 13.9288 14.1714 13.7215C13.487 13.5143 12.7488 13.4063 12 13.4063ZM6.50131 16.4687L6.50232 16.4688Z" fill="#F7F2FE"/>
</svg>
